<?xml version="1.0" encoding="UTF-8"?>
<!-- Generator: visioncortex VTracer -->
<svg id="svg" version="1.1" xmlns="http://www.w3.org/2000/svg" style="display: block;" viewBox="0 0 20 25"><path d="M0 0 C0.99 0 1.98 0 3 0 C2.59007474 3.48436474 1.92407175 5.10413018 -0.1875 8 C-2.3537746 10.8117613 -2.3537746 10.8117613 -1.4375 13.625 C-0.05974456 16.01094638 -0.05974456 16.01094638 1.625 18.0625 C3 20 3 20 3 24 C-0.06382739 23.67567593 -0.98970965 23.01098513 -3.140625 20.71484375 C-3.83671875 19.79832031 -4.5328125 18.88179687 -5.25 17.9375 C-5.95640625 17.01839844 -6.6628125 16.09929688 -7.390625 15.15234375 C-7.92171875 14.44207031 -8.4528125 13.73179688 -9 13 C-7.51804579 9.78541276 -5.70259491 7.06664104 -3.5625 4.25 C-2.96566406 3.45078125 -2.36882813 2.6515625 -1.75390625 1.828125 C-1.17511719 1.22484375 -0.59632812 0.6215625 0 0 Z " transform="translate(17,0)" style="fill: #838383;"/><path d="M0 0 C1.32 0.33 2.64 0.66 4 1 C2.6302836 4.99500618 0.74277578 7.80009492 -2 11 C-0.80162325 13.59648296 0.51154234 15.71615928 2.1875 18.0625 C2.785625 19.031875 3.38375 20.00125 4 21 C3.67 21.99 3.34 22.98 3 24 C0.0631208 23.66062729 -0.92536148 23.07902902 -2.9921875 20.890625 C-3.92417969 19.58351563 -3.92417969 19.58351563 -4.875 18.25 C-5.51179687 17.38890625 -6.14859375 16.5278125 -6.8046875 15.640625 C-8 13 -8 13 -7.390625 10.44140625 C-6.02095205 8.0367838 -4.57606323 5.86929849 -2.875 3.6875 C-2.33617187 2.99011719 -1.79734375 2.29273438 -1.2421875 1.57421875 C-0.62730469 0.79498047 -0.62730469 0.79498047 0 0 Z " transform="translate(8,0)" style="fill: #838383;"/></svg>