<?xml version="1.0" encoding="UTF-8"?>
<!-- Generator: visioncortex VTracer -->
<svg id="svg" version="1.1" xmlns="http://www.w3.org/2000/svg" style="display: block;" viewBox="0 0 72 72"><path d="M0 0 C8.58 0 17.16 0 26 0 C26 3.63 26 7.26 26 11 C21.05 11 16.1 11 11 11 C11 15.95 11 20.9 11 26 C7.37 26 3.74 26 0 26 C0 17.42 0 8.84 0 0 Z " transform="translate(46,46)" style="fill: #A4A4A4;"/><path d="M0 0 C8.58 0 17.16 0 26 0 C26 8.58 26 17.16 26 26 C22.37 26 18.74 26 15 26 C15 21.05 15 16.1 15 11 C10.05 11 5.1 11 0 11 C0 7.37 0 3.74 0 0 Z " transform="translate(0,46)" style="fill: #A4A4A4;"/><path d="M0 0 C3.63 0 7.26 0 11 0 C11 4.95 11 9.9 11 15 C15.95 15 20.9 15 26 15 C26 18.63 26 22.26 26 26 C17.42 26 8.84 26 0 26 C0 17.42 0 8.84 0 0 Z " transform="translate(46,0)" style="fill: #A4A4A4;"/><path d="M0 0 C3.63 0 7.26 0 11 0 C11 8.58 11 17.16 11 26 C2.42 26 -6.16 26 -15 26 C-15 22.37 -15 18.74 -15 15 C-10.05 15 -5.1 15 0 15 C0 10.05 0 5.1 0 0 Z " transform="translate(15,0)" style="fill: #A5A5A5;"/></svg>