<?xml version="1.0" encoding="UTF-8"?>
<!-- Generator: visioncortex VTracer -->
<svg id="svg" version="1.1" xmlns="http://www.w3.org/2000/svg" style="display: block;" viewBox="0 0 52 52"><path d="M0 0 C2.31 0 4.62 0 7 0 C7 6.27 7 12.54 7 19 C0.73 19 -5.54 19 -12 19 C-12 16.69 -12 14.38 -12 12 C-8.04 12 -4.08 12 0 12 C0 8.04 0 4.08 0 0 Z " transform="translate(45,33)" style="fill: #9A9A9A;"/><path d="M0 0 C6.27 0 12.54 0 19 0 C19 6.27 19 12.54 19 19 C16.69 19 14.38 19 12 19 C12 15.04 12 11.08 12 7 C9.3084375 7.0309375 9.3084375 7.0309375 6.5625 7.0625 C4.70833878 7.0838122 2.85287502 7.07226502 1 7 C0 6 0 6 0 0 Z " transform="translate(33,0)" style="fill: #9C9C9C;"/><path d="M0 0 C6 0 6 0 7 1 C7.07226502 2.85287502 7.0838122 4.70833878 7.0625 6.5625 C7.05347656 7.57441406 7.04445313 8.58632813 7.03515625 9.62890625 C7.02355469 10.41136719 7.01195312 11.19382812 7 12 C7.78246094 11.98839844 8.56492187 11.97679687 9.37109375 11.96484375 C10.38300781 11.95582031 11.39492187 11.94679688 12.4375 11.9375 C13.44683594 11.92589844 14.45617187 11.91429687 15.49609375 11.90234375 C18 12 18 12 19 13 C19 14.98 19 16.96 19 19 C12.73 19 6.46 19 0 19 C0 12.73 0 6.46 0 0 Z " transform="translate(0,33)" style="fill: #9B9B9B;"/><path d="M0 0 C6.27 0 12.54 0 19 0 C19 6 19 6 18 7 C16.14712498 7.07226502 14.29166122 7.0838122 12.4375 7.0625 C11.42558594 7.05347656 10.41367188 7.04445313 9.37109375 7.03515625 C8.19740234 7.01775391 8.19740234 7.01775391 7 7 C7.01160156 7.78246094 7.02320313 8.56492187 7.03515625 9.37109375 C7.04417969 10.38300781 7.05320312 11.39492187 7.0625 12.4375 C7.07410156 13.44683594 7.08570313 14.45617187 7.09765625 15.49609375 C7 18 7 18 6 19 C4.02 19 2.04 19 0 19 C0 12.73 0 6.46 0 0 Z " transform="translate(0,0)" style="fill: #9D9D9D;"/></svg>