<?xml version="1.0" encoding="UTF-8"?>
<!-- Generator: visioncortex VTracer -->
<svg id="svg" version="1.1" xmlns="http://www.w3.org/2000/svg" style="display: block;" viewBox="0 0 304 304"><path d="M0 0 C1.14866043 -0.00101212 1.14866043 -0.00101212 2.32052612 -0.00204468 C13.38437946 0.01347631 23.87791937 0.38258254 34.625 3.25 C35.31223145 3.42692383 35.99946289 3.60384766 36.70751953 3.78613281 C64.19112836 10.94287197 87.00509715 23.80532478 107.625 43.25 C108.63626953 44.18199219 108.63626953 44.18199219 109.66796875 45.1328125 C133.96380203 68.31326821 151.29964605 105.26085465 152.78613281 138.89599609 C152.83208621 143.1392044 152.87165927 147.38153836 152.875 151.625 C152.87567474 152.39077362 152.87634949 153.15654724 152.87704468 153.94552612 C152.86152369 165.00937946 152.49241746 175.50291937 149.625 186.25 C149.44807617 186.93723145 149.27115234 187.62446289 149.08886719 188.33251953 C141.93212803 215.81612836 129.06967522 238.63009715 109.625 259.25 C108.69300781 260.26126953 108.69300781 260.26126953 107.7421875 261.29296875 C84.56173179 285.58880203 47.61414535 302.92464605 13.97900391 304.41113281 C9.7357956 304.45708621 5.49346164 304.49665927 1.25 304.5 C0.10133957 304.50101212 0.10133957 304.50101212 -1.07052612 304.50204468 C-12.13437946 304.48652369 -22.62791937 304.11741746 -33.375 301.25 C-34.06223145 301.07307617 -34.74946289 300.89615234 -35.45751953 300.71386719 C-62.94112836 293.55712803 -85.75509715 280.69467522 -106.375 261.25 C-107.04917969 260.62867188 -107.72335938 260.00734375 -108.41796875 259.3671875 C-132.71380203 236.18673179 -150.04964605 199.23914535 -151.53613281 165.60400391 C-151.58208621 161.3607956 -151.62165927 157.11846164 -151.625 152.875 C-151.62601212 151.72633957 -151.62601212 151.72633957 -151.62704468 150.55447388 C-151.61152369 139.49062054 -151.24241746 128.99708063 -148.375 118.25 C-148.19807617 117.56276855 -148.02115234 116.87553711 -147.83886719 116.16748047 C-140.68212803 88.68387164 -127.81967522 65.86990285 -108.375 45.25 C-107.75367188 44.57582031 -107.13234375 43.90164062 -106.4921875 43.20703125 C-79.27048134 14.67549404 -38.78214908 0.03053183 0 0 Z M-31.375 16.25 C-32.03612793 16.4056543 -32.69725586 16.56130859 -33.37841797 16.72167969 C-50.54388952 20.80811411 -67.29480603 28.60554198 -81.375 39.25 C-82.25671875 39.91128906 -83.1384375 40.57257812 -84.046875 41.25390625 C-114.66726627 65.28117859 -133.4096648 98.65914138 -138.375 137.25 C-139.14515884 152.9215654 -139.3947576 168.99803564 -135.375 184.25 C-135.17632324 185.03487793 -134.97764648 185.81975586 -134.77294922 186.62841797 C-131.67972805 198.60509231 -127.4927128 209.50361277 -121.375 220.25 C-120.99859375 220.92015137 -120.6221875 221.59030273 -120.234375 222.28076172 C-114.79374882 231.8403953 -108.58997016 239.97178705 -100.83789062 247.76367188 C-99.45067815 249.17310939 -98.10665317 250.62467531 -96.765625 252.078125 C-75.03597674 275.12472164 -42.38085455 289.64477701 -10.81835938 291.45385742 C28.41863882 292.49789819 62.41608433 283.09840255 92.625 257.25 C93.40875 256.60160156 94.1925 255.95320312 95 255.28515625 C100.99566953 250.19508264 105.82545262 244.46269957 110.625 238.25 C111.59373047 237.05697266 111.59373047 237.05697266 112.58203125 235.83984375 C124.15165187 220.97134963 131.70007494 203.31912581 136.625 185.25 C136.91093018 184.22471191 136.91093018 184.22471191 137.20263672 183.17871094 C145.96156312 150.0634563 138.584899 111.44697915 121.625 82.25 C115.6688558 72.20026856 108.76975148 63.59059416 100.625 55.25 C99.78582031 54.33734375 98.94664062 53.4246875 98.08203125 52.484375 C76.30033463 29.41752533 43.6793333 14.85074951 12.05224609 13.04614258 C8.32380507 12.94745001 4.60468597 12.92098108 0.875 12.9375 C-1.10342896 12.94487183 -1.10342896 12.94487183 -3.12182617 12.95239258 C-12.88241021 13.06949797 -21.92678151 13.84642011 -31.375 16.25 Z " transform="translate(151.375,-0.24999999999999997)" style="fill: #EEEEEE;"/><path d="M0 0 C4.29421986 1.71768794 7.94280673 3.67173622 11.8125 6.125 C12.85120239 6.77915894 12.85120239 6.77915894 13.91088867 7.4465332 C20.96348312 11.92102364 27.90065504 16.56751029 34.83984375 21.21508789 C43.79903812 27.21278602 52.7994192 33.14613729 61.8125 39.0625 C62.54450623 39.5431189 63.27651245 40.02373779 64.03070068 40.5189209 C67.80234894 42.9952358 71.57437572 45.47097318 75.34667969 47.94628906 C82.45386581 52.61001657 89.55920436 57.27655595 96.66390991 61.94406128 C98.86854507 63.39220601 101.07353607 64.83980762 103.27856445 66.28735352 C111.20662891 71.49391704 119.11716329 76.72515951 127 82 C125.62348809 86.12953572 122.82379137 87.20166416 119.25 89.3125 C112.96457626 93.13451706 106.79195494 97.08271761 100.6875 101.1875 C91.28571259 107.49243575 81.83821368 113.72535332 72.375 119.9375 C71.63601471 120.42266083 70.89702942 120.90782166 70.13565063 121.40768433 C67.09159545 123.40609591 64.04745804 125.40438205 61.00309753 127.40232849 C55.52070806 131.00057077 50.04098652 134.60284987 44.5625 138.20703125 C42.2442608 139.73180905 39.92599511 141.25654659 37.60772705 142.78128052 C36.1518286 143.73899114 34.69605282 144.6968883 33.24041748 145.65499878 C29.19806466 148.31554084 25.15267643 150.97135451 21.10339355 153.62133789 C19.62442478 154.59072291 18.14675661 155.5620937 16.67004395 156.53491211 C14.31665762 158.08484035 11.95948151 159.62885375 9.6015625 161.171875 C8.50526016 161.89664032 8.50526016 161.89664032 7.3868103 162.63604736 C2.22758641 166 2.22758641 166 0 166 C0 111.22 0 56.44 0 0 Z " transform="translate(105,69)" style="fill: #F8F8F8;"/></svg>