<?xml version="1.0" encoding="UTF-8"?>
<!-- Generator: visioncortex VTracer -->
<svg id="svg" version="1.1" xmlns="http://www.w3.org/2000/svg" style="display: block;" viewBox="0 0 46 60"><path d="M0 0 C5.47665772 3.04258762 10.75219435 6.01927307 15.94140625 9.46875 C16.55338364 9.87154175 17.16536102 10.2743335 17.79588318 10.68933105 C19.72009854 11.95653807 21.64143407 13.22802481 23.5625 14.5 C25.48363823 15.76849813 27.4053889 17.03605726 29.32772827 18.30273438 C30.55654972 19.1127597 31.78461593 19.92393207 33.01187134 20.73632812 C36.26853123 22.88647262 39.55662834 24.96058462 42.90234375 26.96875 C44.43568359 27.97421875 44.43568359 27.97421875 46 29 C46 29.66 46 30.32 46 31 C43.94311523 32.53710937 43.94311523 32.53710937 41.05859375 34.34375 C40.00647705 35.00866455 38.95436035 35.6735791 37.87036133 36.35864258 C36.72611999 37.07250176 35.581832 37.78628616 34.4375 38.5 C32.13619115 39.94893005 29.83775192 41.40238782 27.5390625 42.85546875 C26.97151749 43.21323898 26.40397247 43.57100922 25.81922913 43.93962097 C20.67411145 47.18862592 15.6104771 50.54920994 10.59350586 53.9921875 C7.12068123 56.35001094 3.81474329 58.09262835 0 60 C0 40.2 0 20.4 0 0 Z " transform="translate(0,0)" style="fill: #AFAFAF;"/></svg>