<?xml version="1.0" encoding="UTF-8"?>
<!-- Generator: visioncortex VTracer -->
<svg id="svg" version="1.1" xmlns="http://www.w3.org/2000/svg" style="display: block;" viewBox="0 0 72 60"><path d="M0 0 C2.4375 0.1875 2.4375 0.1875 3.4375 1.1875 C3.53649561 2.99259373 3.56549151 4.80156928 3.56689453 6.609375 C3.57004669 7.76727539 3.57319885 8.92517578 3.57644653 10.11816406 C3.5744223 11.37854492 3.57239807 12.63892578 3.5703125 13.9375 C3.57126923 15.22108398 3.57222595 16.50466797 3.57321167 17.82714844 C3.57468831 20.54753824 3.57253519 23.26789525 3.56787109 25.98828125 C3.56217381 29.48234669 3.56545299 32.97633533 3.57144356 36.47039795 C3.57591754 39.79277153 3.57278885 43.11512423 3.5703125 46.4375 C3.57233673 47.69788086 3.57436096 48.95826172 3.57644653 50.25683594 C3.57171829 51.99368652 3.57171829 51.99368652 3.56689453 53.765625 C3.56609894 54.79075195 3.56530334 55.81587891 3.56448364 56.87207031 C3.4375 59.1875 3.4375 59.1875 2.4375 60.1875 C0.21484375 60.57421875 0.21484375 60.57421875 -2.5625 60.1875 C-4.58706874 58.50477984 -6.24864886 56.92970656 -8 55 C-15.39853843 46.53541848 -15.39853843 46.53541848 -25.72851562 43.44140625 C-26.79102539 43.43947266 -26.79102539 43.43947266 -27.875 43.4375 C-35.48781732 43.26218268 -35.48781732 43.26218268 -36.5625 42.1875 C-36.66196453 40.41890807 -36.69330217 38.64638549 -36.6953125 36.875 C-36.69660156 35.79992188 -36.69789062 34.72484375 -36.69921875 33.6171875 C-36.69341797 31.91949219 -36.69341797 31.91949219 -36.6875 30.1875 C-36.69136719 29.05570313 -36.69523437 27.92390625 -36.69921875 26.7578125 C-36.69792969 25.68273437 -36.69664063 24.60765625 -36.6953125 23.5 C-36.69418457 22.50613281 -36.69305664 21.51226563 -36.69189453 20.48828125 C-36.5625 18.1875 -36.5625 18.1875 -35.5625 17.1875 C-34.04269531 17.27451172 -34.04269531 17.27451172 -32.4921875 17.36328125 C-24.37447023 17.74707601 -19.32892991 16.7882397 -13.17236328 11.2097168 C-10.20752031 8.28243579 -7.35309797 5.2803707 -4.5625 2.1875 C-2.5625 0.1875 -2.5625 0.1875 0 0 Z " transform="translate(36.5625,-0.1875)" style="fill: #AEAEAE;"/><path d="M0 0 C3.64095915 1.3547755 5.81385413 3.39367002 8.6875 6 C9.06261719 5.55527344 9.43773437 5.11054688 9.82421875 4.65234375 C11.3704721 2.94250692 12.86305368 1.41136413 14.6875 0 C17.78794921 -0.07210347 19.0551348 0.55734436 21.5625 2.3125 C22.6875 4 22.6875 4 22.6875 5.875 C21.27347216 8.87980917 19.10653456 10.76704502 16.6875 13 C17.80341737 15.60380719 18.75421367 17.06099536 20.875 19 C22.6875 21 22.6875 21 22.625 23.0625 C21.53307715 25.31914055 20.77558393 26.58308591 18.6875 28 C13.78680497 28 11.13536742 25.12713557 7.6875 22 C7.31238281 22.44472656 6.93726563 22.88945313 6.55078125 23.34765625 C5.00329372 25.05885782 3.51723974 26.59217672 1.6875 28 C-1.81838256 28 -2.83623098 27.47626902 -5.3125 25 C-5.75 22.6875 -5.75 22.6875 -5.3125 20 C-2.8125 17.1875 -2.8125 17.1875 -0.3125 15 C-1.31310584 12.76787927 -2.08929757 11.19744831 -3.9375 9.5625 C-5.3125 8 -5.3125 8 -5.6875 5.5 C-5.3125 3 -5.3125 3 -4.125 1.125 C-2.3125 0 -2.3125 0 0 0 Z " transform="translate(49.3125,16)" style="fill: #A5A5A5;"/><path d="M0 0 C0.8971875 0.3403125 0.8971875 0.3403125 1.8125 0.6875 C0.6059375 1.55375 0.6059375 1.55375 -0.625 2.4375 C-3.16616739 4.66876893 -3.83870368 5.43206771 -4.1875 8.6875 C-5.1875 7.6875 -5.1875 7.6875 -5.4375 5.3125 C-5.1875 2.6875 -5.1875 2.6875 -3.9375 0.8125 C-2.1875 -0.3125 -2.1875 -0.3125 0 0 Z " transform="translate(49.1875,16.3125)" style="fill: #707070;"/></svg>