<?xml version="1.0" encoding="UTF-8"?>
<!-- Generator: visioncortex VTracer -->
<svg id="svg" version="1.1" xmlns="http://www.w3.org/2000/svg" style="display: block;" viewBox="0 0 52 40"><path d="M0 0 C2.475 0.495 2.475 0.495 5 1 C5 13.54 5 26.08 5 39 C2.525 39.495 2.525 39.495 0 40 C-2.47265625 37.9453125 -2.47265625 37.9453125 -5.0625 35.125 C-8.95908607 31.15735774 -11.94830002 29.29609964 -17.625 28.9375 C-19.41671527 28.95362083 -21.20841511 28.97303635 -23 29 C-24.82116003 27.17883997 -24.1323508 24.69328236 -24.13671875 22.2734375 C-24.13285156 21.52320312 -24.12898438 20.77296875 -24.125 20 C-24.12886719 19.24976562 -24.13273437 18.49953125 -24.13671875 17.7265625 C-24.12661053 12.12661053 -24.12661053 12.12661053 -23 11 C-22.22914062 11.01160156 -21.45828125 11.02320313 -20.6640625 11.03515625 C-14.6427119 11.08933293 -10.98835025 10.53051787 -6.46826172 6.30639648 C-5.10552793 4.91881257 -3.78809504 3.48718646 -2.47265625 2.0546875 C-1.24869141 1.03761719 -1.24869141 1.03761719 0 0 Z " transform="translate(24,0)" style="fill: #AAAAAA;"/><path d="M0 0 C4.87773605 0.45374289 7.52177888 1.52177888 11 5 C13.97529039 9.30904125 14.63581939 13.26175694 14.48828125 18.39453125 C13.62620763 22.9945561 11.17578969 26.62026051 8 30 C5.30260892 31.69105672 4.46264648 32.06308816 1.25 31.625 C0.13625 31.315625 0.13625 31.315625 -1 31 C-1 30.01 -1 29.02 -1 28 C1 26.66666667 3 25.33333333 5 24 C7.35898308 21.09058754 7.95868197 19.28406147 8.5 15.5625 C7.74232144 10.16404022 4.81395317 7.47077284 0.6875 4.125 C0.130625 3.75375 -0.42625 3.3825 -1 3 C-0.67 2.01 -0.34 1.02 0 0 Z " transform="translate(38,4)" style="fill: #9A9A9A;"/><path d="M0 0 C2.59094622 0.35012787 4.5774211 0.73770965 6.8125 2.125 C8.73573352 5.16168451 8.42275775 7.49715009 8 11 C6 13.9375 6 13.9375 4 16 C2.35 15.67 0.7 15.34 -1 15 C-1 14.01 -1 13.02 -1 12 C-0.01 11.34 0.98 10.68 2 10 C2 8.68 2 7.36 2 6 C1.01 5.34 0.02 4.68 -1 4 C-0.67 2.68 -0.34 1.36 0 0 Z " transform="translate(34,12)" style="fill: #999999;"/></svg>