<?xml version="1.0" encoding="UTF-8"?>
<!-- Generator: visioncortex VTracer -->
<svg id="svg" version="1.1" xmlns="http://www.w3.org/2000/svg" style="display: block;" viewBox="0 0 136 96"><path d="M0 0 C11.33777442 15.32131679 7.68510735 42.56285593 6.1875 60.625 C6.11748779 61.53701172 6.04747559 62.44902344 5.9753418 63.38867188 C5.34198375 70.24384133 4.11518593 76.20048921 -0.125 81.8125 C-10.14325173 89.43508283 -24.55632296 88.19639296 -36.5 88.5625 C-37.16595184 88.58334656 -37.83190369 88.60419312 -38.51803589 88.62567139 C-111.28194905 90.88507516 -111.28194905 90.88507516 -123.1875 80 C-128.55138119 71.12185182 -128.70953174 60.10829542 -129 50 C-129.02191406 49.31164063 -129.04382813 48.62328125 -129.06640625 47.9140625 C-129.31515725 38.85952625 -128.97349508 29.89844603 -128.1875 20.875 C-128.11748779 20.01052246 -128.04747559 19.14604492 -127.9753418 18.25537109 C-127.32127453 11.54254109 -126.04316847 5.62693089 -121.8125 0.1875 C-102.67379431 -14.69815998 -18.97627467 -15.60271473 0 0 Z " transform="translate(129,7)" style="fill: #1A1A1A;"/><path d="M0 0 C12.375 6.75 12.375 6.75 17.10546875 9.4296875 C18.10771484 9.996875 19.10996094 10.5640625 20.14257812 11.1484375 C21.14740234 11.71820313 22.15222656 12.28796875 23.1875 12.875 C24.23486328 13.46796875 25.28222656 14.0609375 26.36132812 14.671875 C28.90798659 16.1138186 31.45420281 17.55653652 34 19 C34 20.32 34 21.64 34 23 C30.39664317 25.04309833 26.79216257 27.08420642 23.1875 29.125 C22.18267578 29.69476563 21.17785156 30.26453125 20.14257812 30.8515625 C19.14033203 31.41875 18.13808594 31.9859375 17.10546875 32.5703125 C15.74651489 33.34012451 15.74651489 33.34012451 14.36010742 34.12548828 C9.59265083 36.78512148 4.7925614 39.3858756 0 42 C0 28.14 0 14.28 0 0 Z " transform="translate(54,27)" style="fill: #F6F6F6;"/></svg>